<svg id="Line" xmlns="http://www.w3.org/2000/svg" viewBox="0 0 64 64" width="50px" fill="#23da95"><defs><style>.cls-1{stroke-width:0px;}</style></defs><path class="cls-1" d="m58,46c0-13.32-10.07-24.33-23-25.82v-2.18c1.1,0,2-.9,2-2v-2c0-1.1-.9-2-2-2h-6c-1.1,0-2,.9-2,2v2c0,1.1.9,2,2,2v2.18c-12.93,1.49-23,12.5-23,25.82-1.65,0-3,1.35-3,3v2c0,1.65,1.35,3,3,3h.24l1.32,4.81c.35,1.29,1.51,2.19,2.81,2.19h43.25c1.3,0,2.46-.9,2.81-2.19l1.32-4.81h.24c1.65,0,3-1.35,3-3v-2c0-1.65-1.35-3-3-3ZM29,14h6v2s-6,0-6,0v-2Zm2,4h2v2.03c-.33-.01-.66-.03-1-.03s-.67.01-1,.03v-2.03Zm1,4c13.23,0,24,10.77,24,24H8c0-13.23,10.77-24,24-24Zm22.51,36.28c-.12.42-.48.72-.88.72H10.37c-.41,0-.77-.29-.88-.72l-1.18-4.28h47.38l-1.18,4.28Zm4.49-7.28c0,.55-.45,1-1,1H6c-.55,0-1-.45-1-1v-2c0-.55.45-1,1-1h52c.55,0,1,.45,1,1v2ZM8.69,13.88l.81-1.27c.3-.47.91-.6,1.38-.31.47.3.6.91.31,1.38l-.81,1.27c-.15.24-.08.55.16.7,1.17.74,1.51,2.29.77,3.46l-.81,1.27c-.19.3-.51.46-.85.46-.18,0-.37-.05-.54-.16-.47-.3-.6-.91-.31-1.38l.81-1.27c.15-.24.08-.55-.16-.7-1.17-.74-1.51-2.29-.77-3.46Zm9-8l.81-1.27c.3-.47.91-.6,1.38-.31.47.3.6.91.31,1.38l-.81,1.27c-.15.24-.08.55.16.7,1.17.74,1.51,2.29.77,3.46l-.81,1.27c-.19.3-.51.46-.85.46-.18,0-.37-.05-.54-.16-.47-.3-.6-.91-.31-1.38l.81-1.27c.15-.24.08-.55-.16-.7-1.17-.74-1.51-2.29-.77-3.46Zm35,8l.81-1.27c.3-.47.91-.6,1.38-.31.47.3.6.91.31,1.38l-.81,1.27c-.15.24-.08.55.16.7,1.17.74,1.51,2.29.77,3.46l-.81,1.27c-.19.3-.51.46-.85.46-.18,0-.37-.05-.54-.16-.47-.3-.6-.91-.31-1.38l.81-1.27c.15-.24.08-.55-.16-.7-1.17-.74-1.51-2.29-.77-3.46Zm-9-8l.81-1.27c.3-.47.91-.6,1.38-.31.47.3.6.91.31,1.38l-.81,1.27c-.15.24-.08.55.16.7,1.17.74,1.51,2.29.77,3.46l-.81,1.27c-.19.3-.51.46-.85.46-.18,0-.37-.05-.54-.16-.47-.3-.6-.91-.31-1.38l.81-1.27c.15-.24.08-.55-.16-.7-1.17-.74-1.51-2.29-.77-3.46Z"/></svg>