<svg xmlns="http://www.w3.org/2000/svg" xmlns:xlink="http://www.w3.org/1999/xlink" viewBox="0 0 5000 5000"><defs><style>.cls-1{fill:#001524;}.cls-2,.cls-68{fill:none;}.cls-11,.cls-3,.cls-42,.cls-47{fill:#fff;}.cls-4{fill:#eef5f5;}.cls-5{fill:#d3efee;}.cls-6{fill:#c3e5e1;}.cls-7{fill:#a2d3d3;}.cls-8{fill:#e4eaec;}.cls-9{fill:#f9c0b2;}.cls-10{fill:#e08c7e;}.cls-11{opacity:0.32;}.cls-12{fill:#1d2629;}.cls-13{opacity:0.61;}.cls-14{fill:#ef4f43;}.cls-15{fill:#f16557;}.cls-16{fill:#f9f3e2;}.cls-17{fill:#15616d;}.cls-18{fill:#c9cdcc;}.cls-19{fill:#b0c7d3;}.cls-20{fill:#dbe6ea;}.cls-21{fill:#a5342f;}.cls-22{fill:#ff7d00;}.cls-23{fill:#323643;}.cls-24{fill:#e4e4e4;}.cls-25{fill:#ffd957;}.cls-26{fill:#f9b317;}.cls-27{fill:#db2821;}.cls-28{fill:#1e2e3a;}.cls-29{fill:#ececec;}.cls-30{fill:#df663e;}.cls-31{fill:#ffd150;}.cls-32{fill:#255494;}.cls-33{fill:#5488c6;}.cls-34{fill:#ffe200;}.cls-35{fill:#ba1a26;}.cls-36{fill:#353452;}.cls-37{fill:#d74f2c;}.cls-38{fill:#eaeaea;}.cls-39{clip-path:url(#clip-path);}.cls-40{fill:#e59331;}.cls-41{fill:#d88328;}.cls-42{opacity:0.4;}.cls-43{fill:#efb3a0;}.cls-44{fill:#ef1b5c;}.cls-45{fill:#ffa900;}.cls-46{fill:#fefefe;}.cls-47{font-size:417.68px;font-family:SFProDisplay-Heavy, SF Pro Display;font-weight:800;}.cls-48{letter-spacing:-0.01em;}.cls-49{letter-spacing:0em;}.cls-50{fill:#f2f2f2;}.cls-51,.cls-64{fill:#00233a;}.cls-51{opacity:0.28;}.cls-52{fill:url(#linear-gradient);}.cls-53{fill:url(#linear-gradient-2);}.cls-54{fill:#ebf0f2;}.cls-55{fill:#07a6d1;}.cls-56{fill:#e2e9ed;}.cls-57{fill:url(#linear-gradient-3);}.cls-58{fill:url(#linear-gradient-4);}.cls-59{fill:url(#linear-gradient-5);}.cls-60{fill:url(#linear-gradient-6);}.cls-61{fill:#f4b184;}.cls-62{fill:#d72655;}.cls-63{fill:url(#linear-gradient-7);}.cls-65{fill:#ff5252;}.cls-66{fill:#00c6e0;}.cls-67{fill:#36b6e8;}.cls-68{stroke:#494949;stroke-linecap:round;stroke-linejoin:round;stroke-width:21.64px;}.cls-69{fill:#bd803e;}.cls-70{fill:#eab681;}.cls-71{fill:#f9caa0;}.cls-72{fill:#6b6c70;}.cls-73{fill:#f7e8d5;}.cls-74{fill:#f7f5f5;}.cls-75{fill:#cbcacc;}.cls-76{fill:#4c2318;}.cls-77{fill:#6d3725;}.cls-78{fill:#632f21;}.cls-79{clip-path:url(#clip-path-2);}.cls-80{opacity:0.38;}.cls-81{fill:#232323;}.cls-82{fill:#a56b32;}.cls-83{fill:#ffa80d;}.cls-84{fill:#ffd60b;}.cls-85{font-size:74.24px;font-family:SFProDisplay-Semibold, SF Pro Display;font-weight:600;letter-spacing:-0.02em;}.cls-86{letter-spacing:0.05em;}.cls-87{letter-spacing:-0.01em;}.cls-88{letter-spacing:-0.05em;}</style><clipPath id="clip-path"><rect class="cls-1" x="774.79" y="1977.21" width="61.45" height="251.15"/></clipPath><linearGradient id="linear-gradient" x1="3153.22" y1="2357.5" x2="3028.19" y2="2410.45" gradientUnits="userSpaceOnUse"><stop offset="0" stop-color="#f9c09a"/><stop offset="1" stop-color="#e5777a"/></linearGradient><linearGradient id="linear-gradient-2" x1="2250.84" y1="2488.92" x2="2389.1" y2="2400.66" xlink:href="#linear-gradient"/><linearGradient id="linear-gradient-3" x1="2687.77" y1="2285.88" x2="2687.77" y2="2203.51" gradientUnits="userSpaceOnUse"><stop offset="0" stop-color="#f9c09a"/><stop offset="1" stop-color="#c1272d"/></linearGradient><linearGradient id="linear-gradient-4" x1="2890.95" y1="2051.62" x2="2942.73" y2="2167.19" gradientTransform="translate(4165.7 -1260.34) rotate(75.21)" xlink:href="#linear-gradient"/><linearGradient id="linear-gradient-5" x1="2526.79" y1="2044.62" x2="2526.79" y2="2218.64" xlink:href="#linear-gradient"/><linearGradient id="linear-gradient-6" x1="2704.55" y1="2118.58" x2="2704.55" y2="2368.34" xlink:href="#linear-gradient"/><linearGradient id="linear-gradient-7" x1="2700.16" y1="1973.12" x2="2700.16" y2="1866.85" gradientUnits="userSpaceOnUse"><stop offset="0" stop-color="#0c1a24"/><stop offset="1" stop-color="#1b3b51"/></linearGradient><clipPath id="clip-path-2"><rect class="cls-2" x="1770.43" y="2553.19" width="1265.52" height="647.45"/></clipPath></defs><g id="Layer_2" data-name="Layer 2"><g id="Layer_1-2" data-name="Layer 1"><rect class="cls-3" width="5000" height="5000"/><circle class="cls-4" cx="2450.71" cy="2482.93" r="1698.07"/><circle class="cls-5" cx="2450.71" cy="2482.93" r="1470.46"/><circle class="cls-6" cx="2450.71" cy="2482.93" r="1198"/><circle class="cls-7" cx="2450.71" cy="2482.93" r="940.61"/><path class="cls-3" d="M3470.4,3482.81l-11.78-11.45q10-10.29,19.79-20.77l12,11.22Q3480.51,3472.42,3470.4,3482.81Zm42.29-45.42-12.26-10.94c7.18-8,14.4-16.34,21.46-24.64l12.52,10.65C3527.27,3420.85,3520,3429.24,3512.69,3437.39ZM1362,3409.89c-7.1-8.39-14.19-17-21.07-25.47l12.79-10.33c6.79,8.42,13.8,16.89,20.82,25.18ZM3555.53,3387l-12.76-10.36c6.78-8.34,13.61-17,20.31-25.61l13,10.06C3569.29,3369.89,3562.38,3378.6,3555.53,3387Zm-2235.07-28.56c-6.74-8.75-13.42-17.63-19.86-26.42l13.24-9.72c6.37,8.68,13,17.46,19.64,26.11ZM3596,3334.75l-13.22-9.75c6.4-8.68,12.83-17.6,19.1-26.52l13.45,9.44C3609,3317,3602.47,3326,3596,3334.75Zm-2314.64-29.53c-6.33-9.06-12.59-18.24-18.61-27.3l13.68-9.1c5.95,9,12.14,18,18.4,27ZM3634,3280.66l-13.66-9.14c6-8.93,12-18.15,17.85-27.39l13.87,8.82C3646.13,3262.29,3640.05,3271.62,3634,3280.66ZM1244.76,3250.2c-5.86-9.26-11.69-18.72-17.33-28.13l14.09-8.45c5.58,9.29,11.34,18.64,17.13,27.8Zm2424.72-25.37-14.07-8.48c5.59-9.27,11.16-18.75,16.56-28.19l14.27,8.16C3680.77,3205.87,3675.13,3215.46,3669.48,3224.83Zm-2458.73-31.27c-5.43-9.55-10.81-19.27-16-28.9l14.46-7.79c5.13,9.51,10.46,19.13,15.83,28.56Zm2491.57-26.13-14.45-7.82c5.17-9.53,10.3-19.27,15.24-28.93l14.63,7.49C3712.73,3147.94,3707.54,3157.79,3702.32,3167.43Zm-2522.9-32c-5-9.79-9.91-19.75-14.64-29.62l14.82-7.1c4.67,9.74,9.54,19.59,14.47,29.26Zm2553-26.86-14.79-7.15c4.7-9.73,9.37-19.69,13.87-29.6l15,6.79C3741.94,3088.61,3737.22,3098.69,3732.46,3108.54Zm-2581.63-32.68c-4.53-10-9-20.21-13.24-30.26l15.13-6.4c4.21,9.92,8.61,20,13.09,29.9Zm2609-27.56-15.12-6.44c4.25-10,8.44-20.12,12.49-30.23l15.25,6.09C3768.37,3028,3764.12,3038.24,3759.83,3048.3Zm-2634.77-33.25c-4.07-10.26-8-20.63-11.82-30.83l15.41-5.7c3.73,10.08,7.66,20.33,11.68,30.47Zm2659.3-28.2-15.4-5.73c3.79-10.2,7.51-20.56,11.05-30.79l15.53,5.37C3792,2966.05,3788.2,2976.53,3784.36,2986.85Zm-2682.21-33.73c-3.58-10.41-7.07-21-10.36-31.35l15.66-5c3.26,10.27,6.7,20.69,10.24,31ZM3806,2924.29l-15.65-5c3.3-10.33,6.53-20.85,9.6-31.27l15.76,4.63C3812.59,2903.2,3809.32,2913.85,3806,2924.29ZM1082.16,2890.2c-3.09-10.57-6.08-21.26-8.88-31.8l15.87-4.23c2.78,10.41,5.73,21,8.78,31.42Zm2742.5-29.41-15.87-4.27c2.82-10.52,5.56-21.18,8.12-31.7l16,3.9C3830.29,2839.35,3827.52,2850.15,3824.66,2860.79Zm-2759.52-34.37c-2.58-10.63-5.06-21.45-7.39-32.16l16-3.5c2.31,10.59,4.76,21.29,7.31,31.79Zm2775.21-30-16-3.53c2.32-10.57,4.55-21.35,6.63-32.05l16.13,3.14C3845,2774.86,3842.7,2785.77,3840.35,2796.47Zm-2789.24-34.53c-2.07-10.71-4-21.64-5.89-32.47l16.21-2.74c1.81,10.71,3.76,21.51,5.81,32.09ZM3853,2731.46l-16.2-2.77c1.83-10.74,3.56-21.62,5.13-32.33l16.26,2.39C3856.61,2709.58,3854.86,2720.59,3853,2731.46ZM1040.1,2696.88c-1.59-10.91-3-21.91-4.37-32.7l16.32-2c1.29,10.66,2.74,21.53,4.31,32.32Zm2822.53-31-16.31-2c1.32-10.77,2.54-21.73,3.63-32.55l16.34,1.63C3865.2,2644,3864,2655,3862.63,2665.93ZM1032.12,2631.4c-1.07-10.82-2-21.88-2.85-32.85l16.38-1.24c.82,10.85,1.77,21.78,2.82,32.48ZM3869.2,2600l-16.39-1.25c.83-10.82,1.54-21.82,2.12-32.7l16.4.88C3870.75,2577.93,3870,2589.06,3869.2,2600Zm-2842-34.35c-.57-10.93-1-22-1.34-33l16.42-.47c.32,10.8.76,21.75,1.33,32.56Zm2845.54-31.74-16.43-.5c.33-10.87.54-21.86.62-32.66l16.43.12C3873.25,2511.79,3873,2522.91,3872.71,2533.91Zm-2847.47-34.23q0-4.74,0-9.5,0-11.8.2-23.54l16.43.26q-.19,11.61-.19,23.28c0,3.13,0,6.27,0,9.4Zm2831.53-31.61c-.17-10.78-.46-21.75-.87-32.6l16.41-.63c.43,11,.72,22.08.89,33Zm-2814-33.82-16.42-.64c.43-11,1-22.05,1.67-33l16.4,1C1043.71,2412.45,1043.15,2423.43,1042.73,2434.25Zm2811.55-31.41c-.66-10.78-1.46-21.74-2.38-32.58l16.38-1.38c.92,11,1.73,22.06,2.39,32.95Zm-2807.51-33.79-16.37-1.4c.94-11,2-22,3.19-32.89l16.33,1.77C1048.76,2347.28,1047.7,2358.22,1046.77,2369.05Zm2802-31.31c-1.17-10.81-2.47-21.72-3.87-32.44l16.29-2.13c1.42,10.84,2.74,21.88,3.92,32.81Zm-2795-33.64-16.29-2.15c1.44-10.9,3-21.91,4.7-32.71l16.24,2.53C1056.82,2282.45,1055.25,2293.33,1053.83,2304.1ZM3840.29,2273c-1.68-10.8-3.49-21.64-5.38-32.22l16.17-2.89c1.92,10.7,3.75,21.67,5.45,32.59Zm-2776.41-33.42-16.17-2.9c1.94-10.84,4-21.75,6.22-32.46l16.1,3.29C1067.87,2218.05,1065.8,2228.85,1063.88,2239.55Zm2764.91-30.88c-2.18-10.72-4.49-21.46-6.88-31.93l16-3.65c2.41,10.59,4.75,21.46,6.95,32.31Zm-2751.86-33.12-16-3.66c2.43-10.66,5-21.47,7.73-32.13l15.93,4C1081.9,2154.33,1079.33,2165,1076.93,2175.55ZM3814.3,2145c-2.68-10.6-5.49-21.23-8.36-31.58l15.84-4.39c2.9,10.48,5.74,21.22,8.46,31.95ZM1093,2112.22l-15.84-4.4c2.93-10.52,6-21.2,9.23-31.74l15.72,4.77C1098.91,2091.27,1095.84,2101.82,1093,2112.22Zm2703.9-30.2c-3.17-10.45-6.48-20.93-9.83-31.15l15.61-5.13c3.4,10.34,6.74,21,9.94,31.52ZM1112,2049.59l-15.6-5.14c3.42-10.41,7-21,10.73-31.38l15.49,5.51C1118.92,2028.86,1115.35,2039.3,1112,2049.59ZM3776.49,2020c-3.64-10.24-7.42-20.55-11.27-30.66l15.35-5.85c3.89,10.23,7.73,20.66,11.4,31Zm-2642.57-32.13-15.35-5.86c3.91-10.25,8-20.62,12.19-30.83l15.21,6.23C1141.84,1967.44,1137.79,1977.69,1133.92,1987.82Zm2619.32-28.92c-4.15-10.14-8.41-20.23-12.65-30l15.06-6.56c4.3,9.87,8.6,20.08,12.8,30.34Zm-2594.51-31.71-15.06-6.58c4.4-10.07,9-20.23,13.62-30.2l14.9,6.92C1167.61,1907.19,1163.08,1917.24,1158.73,1927.19Zm2568.52-28c-4.55-9.83-9.28-19.72-14-29.39l14.74-7.25c4.82,9.79,9.59,19.79,14.2,29.73Zm-2540.91-31.4-14.73-7.27c4.85-9.84,9.9-19.77,15-29.53l14.56,7.62C1196.13,1848.27,1191.14,1858.09,1186.34,1867.81Zm2512.17-27c-5.08-9.74-10.26-19.4-15.39-28.72l14.39-7.93c5.19,9.43,10.43,19.2,15.57,29.05Zm-2481.83-31-14.37-8c5.31-9.59,10.81-19.27,16.35-28.78l14.2,8.29C1227.37,1790.75,1221.93,1800.32,1216.68,1809.81Zm2450.39-26.14c-5.42-9.31-11-18.73-16.71-28l14-8.59c5.73,9.36,11.42,18.89,16.91,28.32ZM1249.68,1753.3l-14-8.61c5.77-9.38,11.72-18.8,17.68-28l13.78,8.94C1261.27,1734.73,1255.39,1744,1249.68,1753.3ZM3633,1728.08c-5.92-9.16-12-18.31-18-27.19l13.6-9.23c6.1,9,12.22,18.25,18.2,27.51ZM1285.26,1698.4l-13.58-9.25c6.19-9.08,12.56-18.2,18.94-27.12l13.36,9.57C1297.68,1680.41,1291.38,1689.43,1285.26,1698.4Zm2311.12-24.29c-6.29-8.82-12.76-17.69-19.24-26.35l13.16-9.84c6.55,8.76,13.1,17.73,19.46,26.65Zm-2273-28.87-13.14-9.87c6.62-8.81,13.41-17.63,20.17-26.21l12.91,10.18C1336.58,1627.82,1329.87,1636.53,1323.33,1645.24Zm2234-23.38c-6.72-8.56-13.6-17.12-20.44-25.44l12.68-10.44c6.93,8.42,13.89,17.08,20.69,25.73Zm-2193.49-28-12.66-10.47c6.95-8.41,14.14-16.9,21.35-25.23l12.42,10.76C1377.78,1577.19,1370.68,1585.59,1363.8,1593.9Zm2152-22.45c-7.07-8.2-14.33-16.43-21.6-24.48l12.19-11c7.35,8.14,14.71,16.47,21.86,24.76Zm-2109.23-26.94-12.17-11c7.35-8.1,14.92-16.24,22.49-24.21l11.91,11.32C1421.34,1528.45,1413.86,1536.5,1406.59,1544.51ZM3472.05,1523c-7.41-7.83-15.05-15.73-22.71-23.46L3461,1488c7.75,7.82,15.48,15.8,23,23.73ZM1451.6,1497.15,1440,1485.56c7.74-7.77,15.67-15.56,23.58-23.15l11.37,11.86C1467.09,1481.77,1459.24,1489.47,1451.6,1497.15Zm1974.48-20.56c-7.8-7.52-15.81-15.06-23.78-22.4l11.13-12.09c8.06,7.43,16.16,15.05,24.05,22.66Zm-1927.35-24.65-11.1-12.12c8.08-7.4,16.36-14.81,24.61-22l10.82,12.37C1514.9,1437.29,1506.72,1444.62,1498.73,1451.94ZM3378,1432.35c-8.15-7.17-16.5-14.34-24.79-21.29l10.56-12.59c8.38,7,16.82,14.28,25.08,21.53ZM1547.87,1409l-10.52-12.62c8.41-7,17-14,25.59-20.86l10.23,12.85C1564.7,1395.08,1556.19,1402,1547.87,1409Zm1780.06-18.61c-8.51-6.8-17.18-13.57-25.77-20.12l10-13.07c8.69,6.63,17.45,13.48,26.06,20.36Zm-1729-22-9.94-13.1c8.69-6.59,17.61-13.2,26.51-19.65l9.64,13.32C1616.34,1355.25,1607.52,1361.79,1598.94,1368.31Zm1677-17.61c-8.87-6.45-17.85-12.81-26.67-18.91l9.35-13.52c8.92,6.17,18,12.61,27,19.13ZM1651.8,1330.07l-9.32-13.54c9-6.19,18.21-12.39,27.39-18.4l9,13.75C1669.8,1317.82,1660.69,1323.94,1651.8,1330.07Zm1570.36-16.58c-9.06-6-18.32-11.91-27.53-17.67l8.71-13.93c9.32,5.83,18.69,11.84,27.85,17.87Zm-1515.81-19.17-8.68-13.94c9.27-5.78,18.75-11.53,28.19-17.11l8.36,14.15C1724.89,1282.93,1715.51,1288.62,1706.35,1294.32Zm1460.34-15.52c-9.36-5.55-18.9-11.06-28.33-16.37l8-14.32c9.55,5.37,19.19,10.94,28.67,16.56Zm-1404.22-17.64-8-14.34c9.58-5.36,19.32-10.66,29-15.77l7.69,14.52C1781.56,1250.61,1771.94,1255.86,1762.47,1261.16Zm1347.19-14.44c-9.65-5.13-19.43-10.19-29.08-15L3088,1217c9.76,4.91,19.66,10,29.41,15.21ZM1820,1230.65l-7.35-14.69c9.69-4.86,19.67-9.71,29.63-14.41l7,14.86C1839.48,1221.06,1829.63,1225.85,1820,1230.65Zm1231.11-13.33c-9.87-4.68-19.88-9.27-29.76-13.67l6.69-15c10,4.45,20.12,9.1,30.1,13.82Zm-1172.21-14.46-6.66-15c10-4.44,20.19-8.81,30.26-13l6.31,15.18C1898.9,1194.15,1888.84,1198.47,1878.94,1202.86Zm1112.38-12.19c-10.05-4.19-20.27-8.32-30.38-12.26l6-15.31c10.23,4,20.58,8.16,30.74,12.41ZM1939,1177.85l-6-15.31c10.26-4,20.67-7.9,30.94-11.62l5.6,15.45C1959.47,1170,1949.18,1173.91,1939,1177.85Zm991.24-11c-10.22-3.72-20.62-7.36-30.93-10.84l5.24-15.57c10.44,3.52,21,7.2,31.3,11Zm-929.83-11.26-5.23-15.57c10.38-3.49,21-6.91,31.44-10.17l4.87,15.7C2021.17,1148.76,2010.71,1152.14,2000.45,1155.59Zm867.71-9.7c-10.35-3.22-20.88-6.36-31.3-9.34l4.51-15.79c10.55,3,21.2,6.19,31.67,9.44Zm-805.32-9.66-4.5-15.8c10.62-3,21.35-6,31.89-8.68l4.13,15.9C2083.94,1130.35,2073.34,1133.24,2062.84,1136.23Zm742.51-8.29c-10.49-2.73-21.16-5.38-31.71-7.86l3.77-16c10.68,2.52,21.47,5.2,32.08,8Zm-679.28-8.13-3.76-16c10.71-2.52,21.56-4.93,32.26-7.18l3.38,16.08C2147.38,1114.93,2136.65,1117.32,2126.07,1119.81Zm615.69-6.86c-10.64-2.24-21.42-4.39-32-6.38l3-16.15c10.74,2,21.64,4.18,32.41,6.46ZM2190,1106.36l-3-16.16c10.79-2,21.75-3.92,32.56-5.67l2.63,16.22C2211.48,1102.49,2200.65,1104.37,2190,1106.36Zm487.56-5.42c-10.66-1.74-21.53-3.38-32.3-4.88l2.27-16.28c10.89,1.52,21.89,3.18,32.68,4.94Zm-423.08-5-2.25-16.28c10.83-1.5,21.86-2.89,32.78-4.15l1.88,16.32C2276.08,1093,2265.18,1094.41,2254.47,1095.9Zm358.39-4c-10.85-1.25-21.78-2.39-32.5-3.38l1.51-16.36c10.84,1,21.9,2.15,32.87,3.41Zm-293.49-3.49-1.5-16.37c11-1,22.05-1.89,32.94-2.63l1.12,16.4C2341.16,1086.57,2330.2,1087.45,2319.37,1088.44Zm228.43-2.52c-10.82-.75-21.79-1.38-32.61-1.88l.75-16.41c10.95.5,22,1.14,33,1.9ZM2384.55,1084l-.75-16.42c11-.5,22.15-.87,33-1.11l.36,16.43C2406.44,1083.12,2395.45,1083.49,2384.55,1084Zm98-1.08c-10.91-.25-21.91-.38-32.67-.38V1066.1c10.88,0,22,.13,33,.38Z"/><polygon class="cls-3" points="1407.6 3331.24 1442.41 3491.34 1286.34 3441.45 1407.6 3331.24"/><rect class="cls-3" x="3421.92" y="2758.62" width="669.69" height="256.57" rx="21.59"/><rect class="cls-8" x="3554.81" y="2950.09" width="325.65" height="37.5"/><rect class="cls-8" x="3459.09" y="2950.75" width="72.94" height="35.53"/><rect class="cls-8" x="3923.55" y="2950.75" width="136.51" height="35.53"/><rect class="cls-8" x="4020.01" y="2896.8" width="38.65" height="35.53"/><rect class="cls-8" x="3972.15" y="2896.8" width="38.65" height="35.53"/><rect class="cls-8" x="3923.79" y="2896.8" width="38.65" height="35.53"/><rect class="cls-8" x="4020.01" y="2844.5" width="38.65" height="35.53"/><rect class="cls-8" x="3972.15" y="2844.5" width="38.65" height="35.53"/><rect class="cls-8" x="3923.79" y="2844.5" width="38.65" height="35.53"/><rect class="cls-8" x="4020.01" y="2792.2" width="38.65" height="35.53"/><rect class="cls-8" x="3972.15" y="2792.2" width="38.65" height="35.53"/><rect class="cls-8" x="3923.79" y="2792.2" width="38.65" height="35.53"/><rect class="cls-8" x="3839.75" y="2896.8" width="38.65" height="35.53"/><rect class="cls-8" x="3776.26" y="2896.8" width="38.65" height="35.53"/><rect class="cls-8" x="3712.78" y="2896.8" width="38.65" height="35.53"/><rect class="cls-8" x="3649.29" y="2896.8" width="38.65" height="35.53"/><rect class="cls-8" x="3585.81" y="2896.8" width="38.65" height="35.53"/><rect class="cls-8" x="3522.32" y="2896.8" width="38.65" height="35.53"/><rect class="cls-8" x="3458.84" y="2896.8" width="38.65" height="35.53"/><rect class="cls-8" x="3839.75" y="2843.51" width="38.65" height="35.53"/><rect class="cls-8" x="3776.26" y="2843.51" width="38.65" height="35.53"/><rect class="cls-8" x="3712.78" y="2843.51" width="38.65" height="35.53"/><rect class="cls-8" x="3649.29" y="2843.51" width="38.65" height="35.53"/><rect class="cls-8" x="3585.81" y="2843.51" width="38.65" height="35.53"/><rect class="cls-8" x="3522.32" y="2843.51" width="38.65" height="35.53"/><rect class="cls-8" x="3458.84" y="2843.51" width="38.65" height="35.53"/><rect class="cls-8" x="3839.75" y="2790.23" width="38.65" height="35.53"/><rect class="cls-8" x="3776.26" y="2790.23" width="38.65" height="35.53"/><rect class="cls-8" x="3712.78" y="2790.23" width="38.65" height="35.53"/><rect class="cls-8" x="3649.29" y="2790.23" width="38.65" height="35.53"/><rect class="cls-8" x="3585.81" y="2790.23" width="38.65" height="35.53"/><rect class="cls-8" x="3522.32" y="2790.23" width="38.65" height="35.53"/><rect class="cls-8" x="3458.84" y="2790.23" width="38.65" height="35.53"/><path class="cls-9" d="M3884.75,2930.4h71a35.2,35.2,0,0,1,35.2,35.2v64.69a63.55,63.55,0,0,1-63.55,63.55h-42.64a35.2,35.2,0,0,1-35.2-35.2v-93A35.2,35.2,0,0,1,3884.75,2930.4Z"/><path class="cls-9" d="M3853.92,3081.27l-52-61.81c-10-11.89-10-31.36,0-43.26h0c10-11.9,26.39-11.9,36.4,0l52,61.81c10,11.89,10,31.36,0,43.26h0C3880.31,3093.17,3863.93,3093.17,3853.92,3081.27Z"/><path class="cls-9" d="M3869.1,3006.88h0a21.82,21.82,0,0,1-21.76-21.76v-95.6a21.83,21.83,0,0,1,21.76-21.76h0a21.83,21.83,0,0,1,21.76,21.76v95.6A21.82,21.82,0,0,1,3869.1,3006.88Z"/><path class="cls-9" d="M3910.17,2974.11h0a21.82,21.82,0,0,1-21.76-21.76v-95.6a21.82,21.82,0,0,1,21.76-21.76h0a21.82,21.82,0,0,1,21.76,21.76v95.6A21.82,21.82,0,0,1,3910.17,2974.11Z"/><path class="cls-9" d="M3940.2,3006.16h0a21.83,21.83,0,0,1-21.76-21.76v-95.61A21.82,21.82,0,0,1,3940.2,2867h0a21.82,21.82,0,0,1,21.76,21.75v95.61A21.83,21.83,0,0,1,3940.2,3006.16Z"/><path class="cls-9" d="M3969.09,3028.19h0a21.82,21.82,0,0,1-21.76-21.76v-95.6a21.82,21.82,0,0,1,21.76-21.76h0a21.83,21.83,0,0,1,21.76,21.76v95.6A21.83,21.83,0,0,1,3969.09,3028.19Z"/><path class="cls-10" d="M3885.65,2965.88l2.76-87.5a35.27,35.27,0,0,0-4.29-5"/><path class="cls-10" d="M3931.68,2869.26v96.38l3.79-98S3933.06,2868.58,3931.68,2869.26Z"/><path class="cls-10" d="M3961.72,2890.76v73.85l4.25-75.21Z"/><rect class="cls-1" x="3837.61" y="3090.11" width="150.31" height="199.97"/><rect class="cls-3" x="3831" y="3066.78" width="162.18" height="72.56"/><path class="cls-9" d="M3564.25,2930.4h42.64a63.55,63.55,0,0,1,63.55,63.55v64.69a35.2,35.2,0,0,1-35.2,35.2h-71a35.2,35.2,0,0,1-35.2-35.2v-93A35.2,35.2,0,0,1,3564.25,2930.4Z" transform="translate(7199.49 6024.26) rotate(180)"/><path class="cls-9" d="M3666.08,3081.27l52-61.81c10-11.89,10-31.36,0-43.26h0c-10-11.9-26.4-11.9-36.41,0l-52,61.81c-10,11.89-10,31.36,0,43.26h0C3639.68,3093.17,3656.07,3093.17,3666.08,3081.27Z"/><path class="cls-9" d="M3650.89,3006.88h0a21.82,21.82,0,0,0,21.76-21.76v-95.6a21.83,21.83,0,0,0-21.76-21.76h0a21.83,21.83,0,0,0-21.75,21.76v95.6A21.82,21.82,0,0,0,3650.89,3006.88Z"/><path class="cls-9" d="M3609.83,2974.11h0a21.82,21.82,0,0,0,21.76-21.76v-95.6a21.82,21.82,0,0,0-21.76-21.76h0a21.82,21.82,0,0,0-21.76,21.76v95.6A21.82,21.82,0,0,0,3609.83,2974.11Z"/><path class="cls-9" d="M3579.79,3006.16h0a21.83,21.83,0,0,0,21.76-21.76v-95.61a21.82,21.82,0,0,0-21.76-21.75h0a21.83,21.83,0,0,0-21.76,21.75v95.61A21.83,21.83,0,0,0,3579.79,3006.16Z"/><path class="cls-9" d="M3550.91,3028.19h0a21.82,21.82,0,0,0,21.76-21.76v-95.6a21.82,21.82,0,0,0-21.76-21.76h0a21.82,21.82,0,0,0-21.76,21.76v95.6A21.82,21.82,0,0,0,3550.91,3028.19Z"/><path class="cls-10" d="M3635.88,2873.37a35.27,35.27,0,0,0-4.29,5l2.76,87.5"/><path class="cls-10" d="M3588.32,2869.26v96.38l-3.79-98S3586.94,2868.58,3588.32,2869.26Z"/><path class="cls-10" d="M3558.28,2890.76v73.85L3554,2889.4Z"/><rect class="cls-1" x="3532.07" y="3090.11" width="150.31" height="199.97" transform="translate(7214.46 6380.18) rotate(180)"/><rect class="cls-3" x="3524.84" y="3066.78" width="164.84" height="72.56" transform="translate(7214.52 6206.13) rotate(180)"/><circle class="cls-11" cx="4132.46" cy="2049.82" r="108.11" transform="translate(-239.07 3522.47) rotate(-45)"/><path class="cls-9" d="M4097.51,2323.17l-34.24-26.41L4039.8,2315V2287H3937.09v108.58h26.65c6.85,26.48,33.91,68,138.66,46Z"/><rect class="cls-12" x="4083.54" y="2167.62" width="33.18" height="92.06" transform="translate(515.63 -763.38) rotate(11.35)"/><path class="cls-12" d="M4161.31,1906a146.64,146.64,0,1,0,114.92,172.63A146.65,146.65,0,0,0,4161.31,1906Zm77.14,165.05a108.1,108.1,0,1,1-84.72-127.27A108.23,108.23,0,0,1,4238.45,2071.09Z"/><g class="cls-13"><path class="cls-3" d="M4207.22,2078.1a10.94,10.94,0,0,1-2.11-.21,10.7,10.7,0,0,1-8.39-12.6,79,79,0,0,0-25.06-74.4,10.7,10.7,0,1,1,14.2-16,100.49,100.49,0,0,1,31.85,94.63A10.71,10.71,0,0,1,4207.22,2078.1Z"/></g><path class="cls-14" d="M4117.74,2226.64l-17.51-3.51L4050,2473.61l17.51,3.52a16,16,0,0,0,18.88-12.57l44-219A16.05,16.05,0,0,0,4117.74,2226.64Z"/><path class="cls-15" d="M4078.87,2218.84a16,16,0,0,0-18.88,12.58l-43.95,219a16,16,0,0,0,12.57,18.88l21.36,4.28,50.26-250.48Z"/><path class="cls-10" d="M4143.35,2247.45a30.56,30.56,0,0,1,30.48,30.48h0a30.57,30.57,0,0,1-30.48,30.49H4076a30.58,30.58,0,0,1-30.49-30.49h0a30.57,30.57,0,0,1,30.49-30.48"/><path class="cls-9" d="M4146.94,2305.55H4086.5a27.43,27.43,0,0,1-27.35-27.35h0a27.44,27.44,0,0,1,27.35-27.36h60.44a27.44,27.44,0,0,1,27.36,27.36h0A27.44,27.44,0,0,1,4146.94,2305.55Z"/><path class="cls-9" d="M4145.78,2444.83l-49.53,2.7c-12,.66-23.78-5.81-24.43-17.8l-.89-1.25c-.66-12,11-23.88,22.94-24.53l49.53-2.7a21.87,21.87,0,0,1,23,20.6h0A21.88,21.88,0,0,1,4145.78,2444.83Z"/><path class="cls-10" d="M4064.86,2375.32s-6.62,5.79-4.28,18.91,13.2,20.34,25.69,20,74-6.81,74-6.81-2.84,6.48-12.48,6.28c0,0-65.3,7.13-73.5,3.92,0,0-8.93,30.33,23.32,29.86l50.36-2.92s14.63-2.85,18.19-17.48c0,0-.71,19.26-19.26,20.69l-54.18,3.13s-19.68,1.15-24-19.54c0,0-1.78-10,2.15-15.7,0,0-13.1-6.07-16.06-23.19,0,0-1.79-13.74,5.53-19.27Z"/><path class="cls-9" d="M4156.65,2413l-68.73,2.59a28,28,0,0,1-29.44-26.39h0a28,28,0,0,1,26.39-29.44l64.06-3.49a28,28,0,0,1,29.44,26.39h0C4179.21,2398,4172,2412.12,4156.65,2413Z"/><path class="cls-10" d="M4152.81,2369.79l-70.05,2A35.86,35.86,0,0,1,4047,2336v-3.44a35.87,35.87,0,0,1,35.76-35.77h72.06a35.88,35.88,0,0,1,35.77,35.77V2336C4190.59,2355.69,4172.48,2369.79,4152.81,2369.79Z"/><path class="cls-9" d="M4165.12,2366.75l-73.22,1.34a32.79,32.79,0,0,1-32.69-32.69v-3.14a32.79,32.79,0,0,1,32.69-32.69h65.85c22.72-1,32.69,14.71,32.69,32.69v3.14C4190.44,2353.38,4183.1,2366.75,4165.12,2366.75Z"/><path class="cls-9" d="M4088.42,2372.51h0c-19,3.94-42-3.49-45.91-22.45l-8.58-66.63a35.3,35.3,0,0,1,27.3-41.64h0a35.31,35.31,0,0,1,41.65,27.3l12.85,61.77A35.33,35.33,0,0,1,4088.42,2372.51Z"/><path class="cls-9" d="M3962.28,2297s-7.85-65.66,58.93-72.63c42.82-4.47,69.45,12.72,77.28,33.75l-29.35,32.28-54-1.75Z"/><path class="cls-10" d="M4009.3,2269.06s24.7,13,25.41,37.57,0,70.29,43.17,73.86c0,0,23.2,2.86,33.9-13.56s8.92-45.31-8.92-87.42c0,0,33.92,87.16-15,92.82,0,0-34.62,9.59-45-31.09s6.06-55.3-36-72.79"/><rect class="cls-1" x="3748.09" y="2243.76" width="163.05" height="192.5" transform="translate(6169.62 -1489.61) rotate(90)"/><rect class="cls-3" x="3823.85" y="2299.92" width="175.92" height="78.71" transform="translate(6251.09 -1572.53) rotate(90)"/><path class="cls-1" d="M3206.61,1167.1h601.66a44,44,0,0,1,44,44v423.5a0,0,0,0,1,0,0H3162.63a0,0,0,0,1,0,0v-423.5A44,44,0,0,1,3206.61,1167.1Z"/><path class="cls-16" d="M3934.12,1631.81H3080.39v23.76c0,13.07,12.68,23.76,28.18,23.76h797.79c15.42,0,28-10.48,28.07-23.47C3934.53,1644.06,3934.53,1632.16,3934.12,1631.81Z"/><rect class="cls-17" x="3209.05" y="1201.91" width="596.78" height="396.75"/><path class="cls-18" d="M3581.48,1663.86H3433.4a6.65,6.65,0,0,1-6.64-6.63h0a6.65,6.65,0,0,1,6.64-6.63h148.08a6.65,6.65,0,0,1,6.64,6.63h0A6.65,6.65,0,0,1,3581.48,1663.86Z"/><polygon class="cls-19" points="3420.95 1261.15 3505.96 1261.15 3505.96 1196.82 3427.84 1196.82 3420.95 1261.15"/><path class="cls-20" d="M3457.23,1258.86h12.45a36.29,36.29,0,0,1,36.29,36.29v65.6a0,0,0,0,1,0,0h-85a0,0,0,0,1,0,0v-65.6A36.29,36.29,0,0,1,3457.23,1258.86Z" transform="translate(6926.91 2619.59) rotate(180)"/><polygon class="cls-21" points="3337.08 1261.15 3422.09 1261.15 3428.99 1196.82 3350.86 1196.82 3337.08 1261.15"/><path class="cls-22" d="M3373.36,1258.86h12.45a36.29,36.29,0,0,1,36.29,36.29v65.6a0,0,0,0,1,0,0h-85a0,0,0,0,1,0,0v-65.6A36.29,36.29,0,0,1,3373.36,1258.86Z" transform="translate(6759.17 2619.59) rotate(180)"/><polygon class="cls-19" points="3255.51 1261.15 3340.52 1261.15 3354.31 1196.82 3276.18 1196.82 3255.51 1261.15"/><path class="cls-20" d="M3291.79,1258.86h12.45a36.29,36.29,0,0,1,36.29,36.29v65.6a0,0,0,0,1,0,0h-85a0,0,0,0,1,0,0v-65.6A36.29,36.29,0,0,1,3291.79,1258.86Z" transform="translate(6596.03 2619.59) rotate(180)"/><polygon class="cls-21" points="3171.64 1261.15 3256.65 1261.15 3277.33 1196.82 3206.1 1196.82 3171.64 1261.15"/><path class="cls-22" d="M3207.92,1258.86h12.45a36.29,36.29,0,0,1,36.29,36.29v65.6a0,0,0,0,1,0,0h-85a0,0,0,0,1,0,0v-65.6a36.29,36.29,0,0,1,36.29-36.29Z" transform="translate(6428.29 2619.59) rotate(180)"/><polygon class="cls-21" points="3589.97 1260.72 3504.96 1260.72 3504.96 1196.38 3583.08 1196.38 3589.97 1260.72"/><path class="cls-22" d="M3505,1258.43h85a0,0,0,0,1,0,0V1324a36.29,36.29,0,0,1-36.29,36.29h-12.45A36.29,36.29,0,0,1,3505,1324v-65.6A0,0,0,0,1,3505,1258.43Z"/><polygon class="cls-19" points="3673.84 1260.72 3588.83 1260.72 3581.93 1196.38 3660.06 1196.38 3673.84 1260.72"/><path class="cls-20" d="M3588.83,1258.43h85a0,0,0,0,1,0,0V1324a36.29,36.29,0,0,1-36.29,36.29h-12.45a36.29,36.29,0,0,1-36.29-36.29v-65.6A0,0,0,0,1,3588.83,1258.43Z"/><polygon class="cls-21" points="3755.41 1260.72 3670.4 1260.72 3656.61 1196.38 3734.74 1196.38 3755.41 1260.72"/><path class="cls-22" d="M3670.4,1258.43h85a0,0,0,0,1,0,0V1324a36.29,36.29,0,0,1-36.29,36.29h-12.45A36.29,36.29,0,0,1,3670.4,1324v-65.6A0,0,0,0,1,3670.4,1258.43Z"/><polygon class="cls-19" points="3839.28 1260.72 3754.27 1260.72 3733.59 1196.38 3804.82 1196.38 3839.28 1260.72"/><path class="cls-20" d="M3754.27,1258.43h85a0,0,0,0,1,0,0V1324a36.29,36.29,0,0,1-36.29,36.29h-12.45a36.29,36.29,0,0,1-36.29-36.29v-65.6A0,0,0,0,1,3754.27,1258.43Z"/><path class="cls-16" d="M3587.66,1495.34a6.66,6.66,0,0,0,5.49-5.15l15.64-71a6.66,6.66,0,0,0-1.35-5.64,6.58,6.58,0,0,0-5.26-2.45l-144.13,2.28-6.72-20.66a6.66,6.66,0,0,0-6.35-4.6l-26.63.08a6.66,6.66,0,0,0,0,13.32l21.78-.07,6.18,19a6.68,6.68,0,0,0,1.07,3.27l25.68,79-10.91,23.58a6.65,6.65,0,0,0,6.06,9.45l120.45-.36a6.66,6.66,0,0,0,0-13.32l-110,.34,5.17-11.17Zm-39.76-32.77.08,25.36-35.17,5.38-.09-30.64Zm-35.2-5.6-.09-31.19,35.18-.56.1,31.64Zm-5.59,37.21-19.88,3a6.64,6.64,0,0,0-2.76-2.64l-10.34-31.78,32.88-.1Zm46.57-7.12-.07-24.51,32-.1-4.5,20.42Zm33.2-30.32-33.29.1-.1-31.71,40.49-.63Zm-80-30.87.1,31.11-34.72.11-9.93-30.52Z"/><circle class="cls-16" cx="3477.82" cy="1556.64" r="15.21" transform="translate(1875.23 5013.54) rotate(-89.24)"/><circle class="cls-16" cx="3565.94" cy="1556.38" r="15.21" transform="translate(-227.05 689.52) rotate(-10.71)"/><path class="cls-22" d="M2683.24,832.27H2245.63l52.95,245.43h342c20.3,0,32.6-15.53,36.75-34.31L2714.75,862a2,2,0,0,0,.05-.48C2714.66,845.4,2700.51,832.27,2683.24,832.27Zm-98.08,58.86h-53.5V856.22h53.5Zm0,56.7h-53.5V912.92h53.5Zm0,56.7h-53.5V969.62h53.5ZM2383.5,969.62H2437v34.91h-53.5Zm0-56.7H2437v34.91h-53.5Zm127.58,34.91h-53.5V912.92h53.5Zm-53.5,21.79h53.5v34.91h-53.5Zm53.5-78.49h-53.5V856.22h53.5Zm-74.08,0h-53.5V856.22H2437Zm-142-17.46c0-9.6,8.1-17.45,18-17.45h49.9v34.91H2313C2303.12,891.13,2295,883.27,2295,873.67Zm15.43,56.71c0-9.61,8.1-17.46,18-17.46h34.47v34.91h-34.47C2318.55,947.83,2310.45,940,2310.45,930.38Zm10,57.18v-1c0-9.33,7.88-17,17.51-17h24.93v34.91H2338C2328.36,1004.53,2320.48,996.9,2320.48,987.56Zm6.95,54.21v-2c0-9.06,7.64-16.48,17-16.48h18.5v34.91h-18.5C2335.07,1058.24,2327.43,1050.83,2327.43,1041.77Zm56.07-18.44H2437v34.91h-53.5Zm74.08,0h53.5v34.91h-53.5Zm74.08,0h53.5v34.91h-53.5Zm110.61,18.44c0,9.06-7.65,16.47-17,16.47h-19.53v-34.91h19.53c9.35,0,17,7.42,17,16.48Zm12.34-54.21c0,9.34-7.87,17-17.5,17h-31.37V969.62h31.37c9.63,0,17.5,7.64,17.5,17ZM2649,947.83h-43.22V912.92H2649c9.9,0,18,7.85,18,17.46S2658.86,947.83,2649,947.83Zm20.83-56.7h-64.05V856.22h64.05c9.9,0,18,7.85,18,17.45S2679.69,891.13,2669.79,891.13Z"/><path class="cls-1" d="M2660.79,1216.06H2312.64c-42.75,0-77.53-31.72-77.53-70.7s34.78-70.69,77.53-70.69h348.15c13.48,0,24.41,11.28,24.41,25.21s-10.93,25.21-24.41,25.21H2312.64c-15.29,0-28.71,9.47-28.71,20.27s13.42,20.28,28.71,20.28h348.15c13.48,0,24.41,11.29,24.41,25.21S2674.27,1216.06,2660.79,1216.06Z"/><path class="cls-1" d="M2307.68,1089.85l-50.1-309.49a23.8,23.8,0,0,0-4.65-12.07,24.55,24.55,0,0,0-15.58-10,28.05,28.05,0,0,0-8.67-.53l-.72.11h-81.84a18.3,18.3,0,0,0-18.3,18.3v13.34a18.31,18.31,0,0,0,18.3,18.3H2208l46.5,287.23c1.27,13.85,14.28,24,28.9,22.56h0C2298,1116.2,2309,1103.69,2307.68,1089.85Z"/><circle class="cls-23" cx="2375.26" cy="1199.45" r="64.71" transform="translate(-152.44 2030.88) rotate(-45)"/><circle class="cls-24" cx="2375.26" cy="1199.45" r="37.94" transform="translate(662.18 3235.59) rotate(-76.72)"/><circle class="cls-23" cx="2621.44" cy="1199.45" r="64.71" transform="translate(851.79 3475.19) rotate(-76.72)"/><circle class="cls-24" cx="2621.44" cy="1199.45" r="37.94" transform="translate(-80.34 2204.95) rotate(-45)"/><rect class="cls-25" x="1560.13" y="1303" width="199.19" height="45.07" rx="20.9"/><rect class="cls-26" x="1556.3" y="1348.07" width="199.19" height="45.07" rx="20.9"/><rect class="cls-25" x="1558.64" y="1212.77" width="199.19" height="45.07" rx="20.9"/><rect class="cls-26" x="1557.69" y="1257.84" width="199.19" height="45.07" rx="20.9"/><rect class="cls-25" x="1536.11" y="1121.95" width="199.19" height="45.07" rx="20.9"/><rect class="cls-26" x="1591.43" y="1167.31" width="199.19" height="45.07" rx="20.9"/><path class="cls-27" d="M1498.83,1544.59l-332.4.73a31.72,31.72,0,0,1-31.69-31.56l-.38-173.68a31.71,31.71,0,0,1,31.55-31.69l332.4-.73a31.72,31.72,0,0,1,31.7,31.55l.38,173.68A31.72,31.72,0,0,1,1498.83,1544.59Z"/><rect class="cls-28" x="1134.39" y="1363.99" width="396.19" height="47.8" transform="translate(-3.05 2.93) rotate(-0.13)"/><rect class="cls-29" x="1134.59" y="1411.81" width="288.91" height="47.8" transform="translate(-3.15 2.81) rotate(-0.13)"/><path class="cls-30" d="M1453.68,1434.62a9.3,9.3,0,1,1-9.32-9.27A9.31,9.31,0,0,1,1453.68,1434.62Z"/><circle class="cls-30" cx="1470.41" cy="1434.58" r="9.29" transform="translate(-478.3 784.46) rotate(-25.84)"/><circle class="cls-30" cx="1496.43" cy="1434.53" r="9.29" transform="matrix(1, -0.02, 0.02, 1, -27.43, 29.17)"/><rect class="cls-31" x="1209.91" y="1427.31" width="132.77" height="18.06" rx="8.97" transform="translate(-3.15 2.81) rotate(-0.13)"/><rect class="cls-32" x="1260.73" y="1425.92" width="395.66" height="236.93" rx="38.77" transform="translate(3.55 -3.34) rotate(0.13)"/><rect class="cls-33" x="1299.2" y="1499.46" width="75.93" height="54.07" rx="12.46" transform="translate(3.5 -3.06) rotate(0.13)"/><path class="cls-33" d="M1523.23,1588l-214.74-.5a5.39,5.39,0,0,1-5.36-5.38h0a5.38,5.38,0,0,1,5.38-5.35l214.74.49a5.38,5.38,0,0,1,5.36,5.38h0A5.4,5.4,0,0,1,1523.23,1588Z"/><path class="cls-33" d="M1523.18,1607.57l-214.73-.49a5.38,5.38,0,0,1-5.36-5.38h0a5.4,5.4,0,0,1,5.38-5.36l214.74.49a5.4,5.4,0,0,1,5.36,5.39h0A5.38,5.38,0,0,1,1523.18,1607.57Z"/><rect class="cls-8" x="1299.12" y="1441.8" width="39.11" height="33.93" rx="12.46" transform="translate(3.35 -3.02) rotate(0.13)"/><rect class="cls-34" x="1552.65" y="1461.82" width="37.26" height="37.26" transform="translate(-587.17 1522.1) rotate(-44.4)"/><rect class="cls-35" x="1586.46" y="1462.17" width="37.26" height="37.26" transform="translate(-577.77 1545.86) rotate(-44.4)"/><path class="cls-3" d="M1532.14,1919.28c0-81.39-66.21-147.61-147.6-147.61s-147.61,66.22-147.61,147.61,66.22,147.6,147.61,147.6a147.84,147.84,0,0,0,25.85-2.31,7.84,7.84,0,0,0,6-1.18C1482.49,2048.8,1532.14,1989.74,1532.14,1919.28ZM1393.42,2046V2002h47.14a249.43,249.43,0,0,1-27.83,41.23A126.38,126.38,0,0,1,1393.42,2046Zm-23.46-.52a251.47,251.47,0,0,1-29.75-43.56H1377v44.18Q1373.47,2045.93,1370,2045.52Zm-112.08-116h45.29a182.07,182.07,0,0,0,10.91,53.3h-39.55A126.24,126.24,0,0,1,1257.88,1929.53ZM1377,1792.42v42.81h-35.71a203.17,203.17,0,0,1,30.83-42.44C1373.76,1792.63,1375.39,1792.51,1377,1792.42Zm33.58,2.45a206.25,206.25,0,0,1,28.86,40.36h-46v-42.71A127.73,127.73,0,0,1,1410.6,1794.87Zm100.75,116.21h-33.82a190.12,190.12,0,0,0-12.28-56.72h28.5A126.15,126.15,0,0,1,1511.35,1911.08Zm-49.49,0h-68.44v-56.72h55.23A171.85,171.85,0,0,1,1461.86,1911.08ZM1377,1854.36v56.72H1318.9a172.1,172.1,0,0,1,13.21-56.72Zm-73.78,56.72h-45.51a126.14,126.14,0,0,1,17.59-56.72h40.2A189.81,189.81,0,0,0,1303.24,1911.08Zm15.71,18.45H1377v53.3h-45.75A169.63,169.63,0,0,1,1319,1929.53Zm74.47,53.3v-53.3h68.4a169.91,169.91,0,0,1-12.32,53.3Zm84.17-53.3h33.6a126.24,126.24,0,0,1-16.65,53.3h-27.85A181.72,181.72,0,0,0,1477.59,1929.53Zm2.17-94.3H1456.9a234.12,234.12,0,0,0-18.43-31A127.5,127.5,0,0,1,1479.76,1835.23Zm-132.83-37.37a235.29,235.29,0,0,0-23.07,37.37h-34.55A127.27,127.27,0,0,1,1346.93,1797.86ZM1288.12,2002h34a243.26,243.26,0,0,0,23,38.14A127.47,127.47,0,0,1,1288.12,2002Zm152.23,31.48a239.65,239.65,0,0,0,18.28-31.48H1481A127.87,127.87,0,0,1,1440.35,2033.44Z"/><polygon class="cls-3" points="1381.58 2188.22 1362.46 2188.22 1362.46 2145.91 1376.27 2145.91 1381.58 2188.22"/><polygon class="cls-36" points="1378.17 2188.6 1360.96 2188.22 1360.96 2144.84 1372.56 2145.21 1378.17 2188.6"/><rect class="cls-1" x="1143.85" y="2018.41" width="60.59" height="212.72"/><path class="cls-37" d="M1366.72,2121.85l-39.82-118.2a15.59,15.59,0,0,0-15-11.24H1181.38a15.57,15.57,0,0,0-15.57,15.57v113.87h-.19v114.82a15.58,15.58,0,0,0,15.57,15.58h178a15.58,15.58,0,0,0,15.57-15.58l-7.8-114.23Z"/><path class="cls-1" d="M1337.43,2140.76H1195c-5.72,0-10.35-5.07-10.35-11.32V2022.25c0-6.25,4.63-11.32,10.35-11.32h107.35a10.51,10.51,0,0,1,9.89,8l35.07,107.19C1349.38,2133.38,1344.4,2140.76,1337.43,2140.76Z"/><path class="cls-37" d="M1255,2176.63h-64.07c-11.39,0-20.71-10.18-20.71-22.63v-29.89c0-12.45.33-22.64,11.72-22.64h45.71c26.43,0,48,23.64,48,52.53h0C1275.68,2166.45,1266.36,2176.63,1255,2176.63Z"/><rect class="cls-3" x="1334.03" y="2219.64" width="58.35" height="41.89" rx="14.14"/><rect class="cls-1" x="1180.3" y="2130.62" width="22.44" height="8.98" rx="1.38"/><ellipse class="cls-1" cx="1255.39" cy="2259.96" rx="68.32" ry="70.29"/><path class="cls-38" d="M1255.39,2300.63c-21.34,0-38.7-18.25-38.7-40.67s17.36-40.68,38.7-40.68,38.7,18.25,38.7,40.68S1276.73,2300.63,1255.39,2300.63Z"/><rect class="cls-1" x="818.64" y="2228.36" width="318.68" height="31.99"/><rect class="cls-3" x="833.58" y="1977.21" width="312.64" height="251.15"/><rect class="cls-1" x="774.79" y="1977.21" width="61.45" height="251.15"/><g class="cls-39"><rect class="cls-40" x="787.16" y="2152.75" width="90.02" height="66.63"/><rect class="cls-41" x="787.16" y="2152.75" width="18.15" height="66.63"/><rect class="cls-42" x="831.44" y="2151.97" width="10.16" height="66.78"/><rect class="cls-42" x="836.16" y="2148.7" width="10.16" height="71.87" transform="translate(-1343.39 3025.87) rotate(-90)"/><rect class="cls-40" x="797.14" y="2110" width="58.07" height="42.98"/><rect class="cls-41" x="797.14" y="2110" width="11.71" height="42.98"/><rect class="cls-42" x="825.71" y="2109.5" width="6.56" height="43.08"/><rect class="cls-42" x="828.75" y="2107.39" width="6.56" height="46.36" transform="translate(-1298.54 2962.6) rotate(-90)"/></g><rect class="cls-1" x="777.38" y="2220.07" width="369.42" height="18.95"/><ellipse class="cls-1" cx="927.24" cy="2259.96" rx="68.32" ry="70.29"/><path class="cls-38" d="M927.24,2300.63c-21.34,0-38.7-18.25-38.7-40.67s17.36-40.68,38.7-40.68,38.7,18.25,38.7,40.68S948.58,2300.63,927.24,2300.63Z"/><rect class="cls-1" x="1008.78" y="2230.73" width="120.84" height="48.57"/><circle class="cls-38" cx="1068.61" cy="2241.79" r="6.71" transform="translate(-1315.7 2936.51) rotate(-80.76)"/><circle class="cls-38" cx="1089.54" cy="2241.79" r="6.71" transform="translate(-1266.07 1427.02) rotate(-45)"/><rect class="cls-1" x="824.62" y="2232.41" width="12.64" height="37.91"/><rect class="cls-3" x="824.62" y="2232.41" width="3.95" height="37.91"/><path class="cls-9" d="M874,2863.74h45.81a22.72,22.72,0,0,1,22.72,22.72v41.75a41,41,0,0,1-41,41H874a22.72,22.72,0,0,1-22.72-22.72v-60A22.72,22.72,0,0,1,874,2863.74Z" transform="translate(3813.37 2019.57) rotate(90)"/><path class="cls-9" d="M852.28,2873.67l39.89-33.56c7.68-6.46,20.24-6.46,27.92,0h0c7.67,6.46,7.67,17,0,23.49l-39.89,33.56c-7.67,6.46-20.24,6.46-27.92,0h0C844.61,2890.7,844.61,2880.13,852.28,2873.67Z"/><rect class="cls-43" x="931.13" y="2838.58" width="28.08" height="89.77" rx="14.04" transform="translate(3828.64 1938.29) rotate(90)"/><rect class="cls-43" x="952.28" y="2865.08" width="28.08" height="89.77" rx="14.04" transform="translate(3876.29 1943.64) rotate(90)"/><path class="cls-43" d="M900.76,2929.35h0a14.08,14.08,0,0,1,14-14h61.69a14.08,14.08,0,0,1,14,14h0a14.08,14.08,0,0,1-14,14H914.8A14.08,14.08,0,0,1,900.76,2929.35Z"/><path class="cls-43" d="M886.54,2948h0a14.08,14.08,0,0,1,14-14h61.69a14.08,14.08,0,0,1,14,14h0a14.08,14.08,0,0,1-14,14H900.58A14.08,14.08,0,0,1,886.54,2948Z"/><path class="cls-10" d="M926.75,2894.15l56.46,1.78a22.42,22.42,0,0,0,3.23-2.77"/><path class="cls-10" d="M989.09,2923.85H926.9l63.25,2.45S989.54,2924.74,989.09,2923.85Z"/><path class="cls-10" d="M975.22,2943.23H927.56L976.1,2946Z"/><rect class="cls-44" x="754.22" y="2867.78" width="97" height="87.73" transform="translate(3714.36 2108.93) rotate(90)"/><rect class="cls-3" x="785.04" y="2888.21" width="106.37" height="46.83" transform="translate(3749.85 2073.4) rotate(90)"/><rect class="cls-45" x="894.91" y="2740.13" width="412.58" height="305.41"/><rect class="cls-41" x="894.91" y="2740.13" width="83.21" height="305.41"/><rect class="cls-42" x="1097.88" y="2740.56" width="46.58" height="302.07"/><rect class="cls-42" x="1119.5" y="2721.56" width="46.58" height="329.39" transform="translate(-1743.46 4029.04) rotate(-90)"/><path class="cls-9" d="M1166.16,2952.44h39.36a58.67,58.67,0,0,1,58.67,58.67v59.72a32.5,32.5,0,0,1-32.5,32.5h-65.54a32.5,32.5,0,0,1-32.5-32.5v-85.89A32.5,32.5,0,0,1,1166.16,2952.44Z" transform="translate(4226.8 1828.95) rotate(90)"/><path class="cls-9" d="M1262.75,2966.65l-57-48c-11-9.25-29-9.25-39.94,0h0c-11,9.24-11,24.36,0,33.6l57,48c11,9.25,29,9.25,39.94,0h0C1273.73,2991,1273.73,2975.89,1262.75,2966.65Z"/><path class="cls-9" d="M1194.08,2980.66h0a20.14,20.14,0,0,0-20.08-20.08h-88.26a20.14,20.14,0,0,0-20.08,20.08h0a20.15,20.15,0,0,0,20.08,20.09H1174A20.15,20.15,0,0,0,1194.08,2980.66Z"/><rect class="cls-9" x="1079.53" y="2954.36" width="40.17" height="128.43" rx="20.09" transform="translate(4118.19 1918.96) rotate(90)"/><path class="cls-9" d="M1193.41,3046.3h0a20.15,20.15,0,0,0-20.09-20.09h-88.25A20.15,20.15,0,0,0,1065,3046.3h0a20.14,20.14,0,0,0,20.08,20.08h88.25A20.14,20.14,0,0,0,1193.41,3046.3Z"/><rect class="cls-9" x="1129.45" y="3008.75" width="40.17" height="128.43" rx="20.09" transform="translate(4222.5 1923.42) rotate(90)"/><path class="cls-10" d="M1156.23,2995.94l-80.77,2.55a32.37,32.37,0,0,1-4.62-4"/><path class="cls-10" d="M1067,3038.43h89l-90.48,3.5S1066.41,3039.7,1067,3038.43Z"/><path class="cls-10" d="M1086.89,3066.16h68.17l-69.43,3.92S1086.51,3067.33,1086.89,3066.16Z"/><rect class="cls-1" x="1278.93" y="2943.57" width="138.76" height="154.8" transform="translate(4369.28 1672.67) rotate(90)"/><rect class="cls-3" x="1206.79" y="2987.45" width="152.17" height="66.99" transform="translate(4303.81 1738.07) rotate(90)"/><rect class="cls-22" x="1710.34" y="3398.9" width="1475.15" height="623.52" rx="311.76"/><path class="cls-1" d="M3199.8,4126.39a66,66,0,0,1-64-49.72l-76.08-298.42a66,66,0,0,1,63.92-82.34,66.27,66.27,0,0,1,15.65,1.88l293.29,71.29a66,66,0,0,1,17.8,121.11l-32.62,19.12,32.83,32.82a75.42,75.42,0,0,1,0,106.67l-40.2,40.2a75.41,75.41,0,0,1-106.66,0l-28.5-28.5-17.73,31.92A65.18,65.18,0,0,1,3199.8,4126.39Z"/><path class="cls-46" d="M3420.19,3819.92l-293.29-71.29a13.7,13.7,0,0,0-16.51,16.7l76.08,298.42a13.7,13.7,0,0,0,25.25,3.27l51.42-92.56,77.54,77.55a23.1,23.1,0,0,0,32.67,0l40.21-40.21a23.1,23.1,0,0,0,0-32.67l-80.72-80.71,91-53.37A13.7,13.7,0,0,0,3420.19,3819.92Z"/><text class="cls-47" transform="translate(1942.48 3859.52)">P<tspan class="cls-48" x="266.76" y="0">r</tspan><tspan class="cls-49" x="425.43" y="0">o 7</tspan></text><path class="cls-50" d="M2113.21,2022.92c-141.7,0-257-115.28-257-257s115.28-257,257-257a255.86,255.86,0,0,1,143.68,43.9,15,15,0,1,1-16.75,24.79,226,226,0,0,0-126.93-38.77c-125.2,0-227.06,101.86-227.06,227.06s101.86,227,227.06,227c124.6,0,226.46-101.36,227.05-226a15,15,0,0,1,15-14.89h.07a15,15,0,0,1,14.89,15C2369.51,1908.2,2254.23,2022.92,2113.21,2022.92Z"/><polygon class="cls-50" points="2287.56 1798.87 2335.59 1670.31 2422.93 1776.17 2287.56 1798.87"/><path class="cls-50" d="M1971.31,1796.3l28-27.7,12.12-11.8q14.88-14.25,22.84-22.76a99.43,99.43,0,0,0,13.13-17.28,33.86,33.86,0,0,0,5.17-17.28q0-25.5-26.5-25.51a68.52,68.52,0,0,0-25.37,4.94,85.34,85.34,0,0,0-23.1,13.71v-46.35a88.52,88.52,0,0,1,26.51-13.3,106.28,106.28,0,0,1,32.31-4.8q19.7,0,34.08,8a54.14,54.14,0,0,1,22,21.94,65.14,65.14,0,0,1,7.57,31.54q0,21.12-9,36.89t-28.9,35.51l-22.47,22.22h65.89V1824h-134.3Z"/><path class="cls-50" d="M2194.21,1784.5h-81v-30.16l83.56-122h44.17v113.82h25v38.39h-25V1824h-46.7Zm6.82-38.39v-54.86l-37.11,54.86Z"/><path class="cls-50" d="M2128.28,1830.58H2154v45a30.63,30.63,0,0,1,10.73-7,35.08,35.08,0,0,1,12.77-2.34q14.75,0,21.82,7.67t7.08,20.8v43.79h-25.69V1898q0-11.82-10.8-11.82a17.68,17.68,0,0,0-15.91,9.2v43.06h-25.69Z"/><ellipse class="cls-51" cx="2484.94" cy="3202.68" rx="714.52" ry="68.4"/><path class="cls-52" d="M3096.36,2381.29h0a31.54,31.54,0,0,1,20-35.32,13.62,13.62,0,0,1,1.11-2.51l14.35-24.73a13.12,13.12,0,0,1,17.88-4.75l2.44,1.42a13.12,13.12,0,0,1,4.76,17.88l-2.9,5,8-1.53a31.5,31.5,0,1,1,11.75,61.9l-40.65,7.72A31.6,31.6,0,0,1,3096.36,2381.29Z"/><path class="cls-53" d="M2330.09,2461.14h0a31.54,31.54,0,0,0-37-16.72,13.15,13.15,0,0,0-2.37-1.36l-26.17-11.52a13.13,13.13,0,0,0-17.25,6.71l-1.14,2.58a13.14,13.14,0,0,0,6.71,17.25l5.29,2.33-7.41,3.51a31.5,31.5,0,1,0,27,56.92l37.37-17.74A31.58,31.58,0,0,0,2330.09,2461.14Z"/><path class="cls-3" d="M2834.05,2595.78a5.63,5.63,0,0,0,5.92-5.4l-17.43-309.12c0-33.25-29.25-60.45-65-60.45H2608.88c-16.2,0-29.45,12.32-29.45,27.39l-27.52,344.88S2796.87,2595.13,2834.05,2595.78Z"/><path class="cls-3" d="M2659.33,2251.91c16.93,78.29-110.45,169.9-110.45,169.9-49.27,40-228.44,83.23-228.44,83.23L2296,2441.56s212.69-62.89,257.8-178.6c23-59.05,71.58-48.05,71.58-48.05S2653,2222.63,2659.33,2251.91Z"/><path class="cls-54" d="M2599.37,2341.65a218.49,218.49,0,0,1-50.78,44.42c-17.65,17.65-29.42-17.65-41.19-35.3,5.89,17.65,17.65,35.3,11.77,52.95-50,72.23-131.49,71-204.82,85.52l6.09,15.8s179.17-43.23,228.44-83.23a447.06,447.06,0,0,0,50.4-43.82C2599,2365.89,2599.08,2353.78,2599.37,2341.65Z"/><path class="cls-3" d="M2788.13,2327.14s76.24,120,134.34,113.82,202.44-32.86,202.44-32.86l-6.16-68.59s-167.32,34.86-196.11,2.07-88.71-134.71-149.84-121.19Z"/><path class="cls-31" d="M3124.91,2408.1l-.33-3.6a277.19,277.19,0,0,1-41.28,11.11C3107.94,2411.24,3124.91,2408.1,3124.91,2408.1Z"/><path class="cls-54" d="M2907.48,2415.49c-17.65-5.88,11.77-35.3,11.77-58.84-11.77,23.54-41.19,47.07-64.72,23.54-24.85-28.4-49.68-54.67-70.65-82.67l4.25,29.62s76.24,120,134.34,113.82c35.71-3.81,104-15.34,151.28-23.67C3018.63,2426.17,2959.83,2421.65,2907.48,2415.49Z"/><rect class="cls-55" x="2758.49" y="2213.77" width="37.52" height="145.47"/><polygon class="cls-56" points="2741.18 2200.9 2778.14 2248.19 2731.34 2262.19 2747.91 2277.2 2684.22 2315.76 2689.01 2240.3 2741.18 2200.9"/><rect class="cls-55" x="2591.92" y="2213.77" width="37.52" height="145.47"/><polygon class="cls-56" points="2626.12 2200.9 2589.16 2248.19 2635.96 2262.19 2619.38 2277.2 2683.08 2315.76 2678.28 2240.3 2626.12 2200.9"/><polygon class="cls-57" points="2636.69 2228.16 2683.81 2315.76 2738.84 2228.16 2636.69 2228.16"/><ellipse class="cls-58" cx="2901.04" cy="2074.14" rx="59.13" ry="48.71" transform="translate(154.93 4349.42) rotate(-75.21)"/><ellipse class="cls-59" cx="2526.79" cy="2077" rx="48.68" ry="59.18"/><path class="cls-60" d="M2542,1936.64s-34.29,129.46,1.14,263.38c0,0,43.14,67,161.76,51.39s144.81-65.4,144.81-65.4S2882,2120.6,2882,2055.2l-23.11-118.35-86.27-40.49L2573.92,1926Z"/><path class="cls-61" d="M2562.57,1971.81l9.64,46s159-21.59,164.43-105.35l-166,34.18Z"/><path class="cls-61" d="M2710.35,1959.23l9.64,46s159-21.59,164.43-105.35l-166,34.18Z"/><path class="cls-3" d="M2742.67,2151.19c3.29-16.05,1.24-27.89-5.1-23.55-17,11.68-114.67,0-114.67,0-.61,6.53-1.77,14.68-2,23.32C2647.09,2156.8,2696.11,2164,2742.67,2151.19Z"/><path class="cls-62" d="M2620.89,2151c-.69,24.3,5.52,59.25,54.38,60,45,.69,61.85-32.69,67.4-59.76C2696.11,2164,2647.09,2156.8,2620.89,2151Z"/><path class="cls-61" d="M2649.26,2095.2s4.72,22.06,40.88,5.55C2690.14,2100.75,2667.34,2081.79,2649.26,2095.2Z"/><path class="cls-63" d="M2503.58,1825.2l-39.48-75.68s184.36-128.35,365.22,19.27l-3.66-34.28s110.55,23.62,110.55,165.39-62.48,217.85-62.48,217.85h0s-4.31-110.34-41.18-184.81c0,0-49.26,66.39-126.89,65.61,0,0-13.39-31.38,6.27-69.08,0,0-61.56,54.14-150.39,83.41,0,0-13.58-22.05-12.91-62.65,0,0-27.54,86.8-20.83,148.41,0,0-26.74-23.2-29.2-99.63s-34.31-154.69-34.31-154.69S2485.14,1828.9,2503.58,1825.2Z"/><rect class="cls-64" x="2575.46" y="2048.93" width="34.28" height="57.95" rx="17.14"/><path class="cls-64" d="M2778.42,2106.88h0a17.19,17.19,0,0,1-17.14-17.14v-23.67a17.19,17.19,0,0,1,17.14-17.14h0a17.19,17.19,0,0,1,17.14,17.14v23.67A17.19,17.19,0,0,1,2778.42,2106.88Z"/><path class="cls-65" d="M2841.6,2610.06H2559.31c-10.76,0-19.56-8.34-19.56-18.53l31.94-242.82c0-10.19,8.8-18.53,19.56-18.53h218.41c10.76,0,19.56,8.34,19.56,18.53l31.94,242.82C2861.16,2601.72,2852.36,2610.06,2841.6,2610.06Z"/><path class="cls-66" d="M2841.6,2610.06H2559.31c-10.76,0-19.56-8.34-19.56-18.53l31.94-242.82c0-10.19,8.8-18.53,19.56-18.53h218.41c10.76,0,19.56,8.34,19.56,18.53l31.94,242.82C2861.16,2601.72,2852.36,2610.06,2841.6,2610.06Z"/><path class="cls-67" d="M2829.22,2348.71c0-10.19-8.8-18.53-19.56-18.53H2694.9v279.88h146.7c10.76,0,19.56-8.34,19.56-18.53Z"/><path class="cls-3" d="M2610.68,2371.17h0a16.62,16.62,0,0,1-16.57-16.57h0a16.62,16.62,0,0,1,16.57-16.58h0a16.63,16.63,0,0,1,16.58,16.58h0A16.63,16.63,0,0,1,2610.68,2371.17Z"/><path class="cls-3" d="M2770,2371.17h0a16.62,16.62,0,0,1-16.57-16.57h0A16.63,16.63,0,0,1,2770,2338h0a16.63,16.63,0,0,1,16.58,16.58h0A16.63,16.63,0,0,1,2770,2371.17Z"/><rect class="cls-68" x="3073.37" y="2191.45" width="202.18" height="160.92" transform="translate(-4.58 6.42) rotate(-0.12)"/><rect class="cls-68" x="3019.73" y="2191.56" width="202.18" height="160.92" transform="translate(-4.58 6.31) rotate(-0.12)"/><rect class="cls-68" x="3019.74" y="2269.9" width="255.82" height="20.63" transform="translate(-4.6 6.36) rotate(-0.12)"/><rect class="cls-68" x="3035.43" y="2202.25" width="41.26" height="24.27" transform="translate(-4.47 6.18) rotate(-0.12)"/><rect class="cls-68" x="3069.47" y="2206.1" width="2.06" height="16.5" transform="translate(-4.46 6.2) rotate(-0.12)"/><rect class="cls-68" x="3065.34" y="2206.11" width="2.06" height="16.5" transform="translate(-4.46 6.19) rotate(-0.12)"/><rect class="cls-68" x="3061.21" y="2206.12" width="2.06" height="16.5" transform="translate(-4.46 6.18) rotate(-0.12)"/><rect class="cls-68" x="3057.09" y="2206.13" width="2.06" height="16.5" transform="translate(-4.46 6.17) rotate(-0.12)"/><rect class="cls-68" x="3052.96" y="2206.13" width="2.06" height="16.5" transform="translate(-4.46 6.16) rotate(-0.12)"/><rect class="cls-68" x="3048.84" y="2206.14" width="2.06" height="16.5" transform="translate(-4.55 6.28) rotate(-0.12)"/><rect class="cls-68" x="3044.71" y="2206.15" width="2.06" height="16.5" transform="translate(-4.46 6.15) rotate(-0.12)"/><rect class="cls-68" x="3040.58" y="2206.16" width="2.06" height="16.5" transform="translate(-4.46 6.14) rotate(-0.12)"/><rect class="cls-68" x="3116.56" y="2191.53" width="30.95" height="30.95" transform="translate(-4.45 6.33) rotate(-0.12)"/><rect class="cls-68" x="3116.82" y="2321.51" width="30.95" height="30.95" transform="translate(-4.71 6.33) rotate(-0.12)"/><rect class="cls-69" x="3073.37" y="2191.45" width="202.18" height="160.92" transform="translate(-4.58 6.42) rotate(-0.12)"/><rect class="cls-70" x="3019.73" y="2191.56" width="202.18" height="160.92" transform="translate(-4.58 6.31) rotate(-0.12)"/><rect class="cls-71" x="3019.74" y="2269.9" width="255.82" height="20.63" transform="translate(-4.6 6.36) rotate(-0.12)"/><rect class="cls-3" x="3035.43" y="2202.25" width="41.26" height="24.27" transform="translate(-4.47 6.18) rotate(-0.12)"/><rect class="cls-72" x="3069.47" y="2206.1" width="2.06" height="16.5" transform="translate(-4.46 6.2) rotate(-0.12)"/><rect class="cls-72" x="3065.34" y="2206.11" width="2.06" height="16.5" transform="translate(-4.46 6.19) rotate(-0.12)"/><rect class="cls-72" x="3061.21" y="2206.12" width="2.06" height="16.5" transform="translate(-4.46 6.18) rotate(-0.12)"/><rect class="cls-72" x="3057.09" y="2206.13" width="2.06" height="16.5" transform="translate(-4.46 6.17) rotate(-0.12)"/><rect class="cls-72" x="3052.96" y="2206.13" width="2.06" height="16.5" transform="translate(-4.46 6.16) rotate(-0.12)"/><rect class="cls-72" x="3048.84" y="2206.14" width="2.06" height="16.5" transform="translate(-4.55 6.28) rotate(-0.12)"/><rect class="cls-72" x="3044.71" y="2206.15" width="2.06" height="16.5" transform="translate(-4.46 6.15) rotate(-0.12)"/><rect class="cls-72" x="3040.58" y="2206.16" width="2.06" height="16.5" transform="translate(-4.46 6.14) rotate(-0.12)"/><rect class="cls-73" x="3116.56" y="2191.53" width="30.95" height="30.95" transform="translate(-4.45 6.33) rotate(-0.12)"/><rect class="cls-73" x="3116.82" y="2321.51" width="30.95" height="30.95" transform="translate(-4.71 6.33) rotate(-0.12)"/><rect class="cls-74" x="1892.64" y="2062.52" width="607.11" height="409.42" rx="37.49"/><path class="cls-75" d="M2200.19,2551.07h-76.1a17.7,17.7,0,0,1-17.51-19.64l21-197.73a17.66,17.66,0,0,1,17.5-15.86h76.11a17.7,17.7,0,0,1,17.5,19.65l-21,197.72A17.66,17.66,0,0,1,2200.19,2551.07Z"/><rect class="cls-75" x="2057.84" y="2530.25" width="210.63" height="24.99" rx="7.34"/><path class="cls-75" d="M2469.29,2062.52h-18.4a31.65,31.65,0,0,1,15.82,27.38v357.47a31.64,31.64,0,0,1-11.73,24.57h14.31a30.68,30.68,0,0,0,30.46-30.71v-348A30.68,30.68,0,0,0,2469.29,2062.52Z"/><rect class="cls-76" x="1879.04" y="2555.24" width="1183.21" height="647.45"/><rect class="cls-77" x="1852.36" y="2555.24" width="1039.3" height="647.45"/><path class="cls-78" d="M2728.89,2867.66Q2568.42,2952,2383,2945h-1.47q-243.06-.75-453.07-122.55l-76.14-58.83v439.09H2891.67V2789.39A669.07,669.07,0,0,1,2728.89,2867.66Z"/><g class="cls-79"><g class="cls-80"><path class="cls-81" d="M1857.42,2489.17c-1.74,0-3.44.17-5.15.27a63.13,63.13,0,0,1,1,10.9v293.8c1.4.07,2.77.22,4.18.22a87.25,87.25,0,0,0,87-87V2576.16A87.25,87.25,0,0,0,1857.42,2489.17Z"/><rect class="cls-81" x="1944.42" y="2489.17" width="173.99" height="305.19" rx="86.99"/><rect class="cls-81" x="2118.4" y="2489.17" width="173.99" height="305.19" rx="86.99"/><rect class="cls-81" x="2292.39" y="2489.17" width="173.99" height="305.19" rx="86.99"/><rect class="cls-81" x="2640.31" y="2489.17" width="173.99" height="305.19" rx="86.99"/><rect class="cls-81" x="2466.38" y="2483.37" width="173.99" height="305.19" rx="86.99"/><rect class="cls-81" x="2812.9" y="2483.37" width="173.99" height="305.19" rx="86.99"/></g><rect class="cls-22" x="1770.43" y="2460.72" width="173.99" height="305.19" rx="86.99"/><rect class="cls-3" x="1944.42" y="2460.72" width="173.99" height="305.19" rx="86.99"/><rect class="cls-22" x="2118.4" y="2460.72" width="173.99" height="305.19" rx="86.99"/><rect class="cls-3" x="2292.39" y="2460.72" width="173.99" height="305.19" rx="86.99"/><rect class="cls-3" x="2640.31" y="2460.72" width="173.99" height="305.19" rx="86.99"/><rect class="cls-22" x="2466.38" y="2454.93" width="173.99" height="305.19" rx="86.99"/><rect class="cls-22" x="2812.9" y="2454.93" width="173.99" height="305.19" rx="86.99"/></g><polygon class="cls-69" points="2497.55 2966.97 2266.66 2966.97 2221.13 2796.3 2235.63 2792.43 2278.19 2951.96 2487.77 2951.96 2558.72 2791.33 2572.45 2797.4 2497.55 2966.97"/><rect class="cls-82" x="2297.9" y="2701.8" width="210.59" height="544.86" transform="translate(5377.42 571.04) rotate(90)"/><rect class="cls-69" x="2158.48" y="2841.21" width="210.59" height="266.03" transform="translate(5238 710.45) rotate(90)"/><rect class="cls-70" x="2164.52" y="2893.98" width="481.46" height="158.69"/><polygon class="cls-83" points="2946.28 2462.13 2986.89 2557.75 2946.28 2557.75 2914.13 2521.69 2946.28 2462.13"/><polygon class="cls-84" points="2946.28 2557.75 2615.16 2557.75 2631.05 2462.13 2946.28 2462.13 2946.28 2557.75"/><path class="cls-76" d="M2700,2537a24.3,24.3,0,0,1-9.54-9.08,27.44,27.44,0,0,1,0-26.82A24.3,24.3,0,0,1,2700,2492a29.64,29.64,0,0,1,27,0,24.09,24.09,0,0,1,9.51,9.11,27.72,27.72,0,0,1,0,26.82A24.08,24.08,0,0,1,2727,2537a29.64,29.64,0,0,1-27,0Zm20.39-10.18a12.5,12.5,0,0,0,4.94-4.87,16,16,0,0,0,0-14.8,12.79,12.79,0,0,0-4.91-4.88,14.87,14.87,0,0,0-13.92,0,12.74,12.74,0,0,0-4.92,4.88,14.7,14.7,0,0,0-1.8,7.38,14.9,14.9,0,0,0,1.8,7.42,12.33,12.33,0,0,0,4.95,4.87,14.34,14.34,0,0,0,7,1.7A14,14,0,0,0,2720.38,2526.85Z"/><path class="cls-76" d="M2744.89,2489.83h21.77q8.63,0,13.77,4.53t5.16,12.64q0,8.34-5.12,12.9t-13.81,4.55h-9.26v14.77h-12.51Zm19.79,24.1a9.91,9.91,0,0,0,5.9-1.56q2.15-1.56,2.15-5.37c0-2.54-.7-4.29-2.12-5.23a10.63,10.63,0,0,0-5.93-1.41h-7.28v13.57Z"/><path class="cls-76" d="M2789.83,2489.83h35.05v10.53h-22.54v9.26h16.46v9.82h-16.46v9.26h22.54v10.52h-35.05Z"/><path class="cls-76" d="M2829.83,2489.83h12.36l18.16,29.39v-29.39h12.51v49.39h-12.29l-18.24-29.46v29.46h-12.5Z"/><text class="cls-85" transform="translate(2192.93 2994.5)">V<tspan class="cls-86" x="47.72" y="0">end</tspan><tspan class="cls-87" x="183.4" y="0">e</tspan><tspan class="cls-88" x="222.35" y="0">Y</tspan><tspan class="cls-86" x="266.4" y="0">a.pe</tspan></text></g></g></svg>